<?xml version="1.0" encoding="UTF-8" standalone="no"?>
<svg
   xmlns:dc="http://purl.org/dc/elements/1.1/"
   xmlns:cc="http://creativecommons.org/ns#"
   xmlns:rdf="http://www.w3.org/1999/02/22-rdf-syntax-ns#"
   xmlns:svg="http://www.w3.org/2000/svg"
   xmlns="http://www.w3.org/2000/svg"
   xmlns:sodipodi="http://sodipodi.sourceforge.net/DTD/sodipodi-0.dtd"
   xmlns:inkscape="http://www.inkscape.org/namespaces/inkscape"
   width="100%"
   height="100%"
   viewBox="0 0 160 160"
   version="1.1"
   id="enersim2020_logo"
   sodipodi:docname="enersim2020.svg"
   inkscape:version="0.92.4 (5da689c313, 2019-01-14)">
  <metadata
     id="metadata853">
    <rdf:RDF>
      <cc:Work
         rdf:about="">
        <dc:format>image/svg+xml</dc:format>
        <dc:type
           rdf:resource="http://purl.org/dc/dcmitype/StillImage" />
      </cc:Work>
    </rdf:RDF>
  </metadata>
  <defs
     id="defs851">
    <filter
       style="color-interpolation-filters:sRGB;"
       inkscape:label="Drop Shadow"
       id="filter4606">
      <feFlood
         flood-opacity="0.498039"
         flood-color="rgb(0,0,0)"
         result="flood"
         id="feFlood4596" />
      <feComposite
         in="flood"
         in2="SourceGraphic"
         operator="in"
         result="composite1"
         id="feComposite4598" />
      <feGaussianBlur
         in="composite1"
         stdDeviation="3"
         result="blur"
         id="feGaussianBlur4600" />
      <feOffset
         dx="6"
         dy="6"
         result="offset"
         id="feOffset4602" />
      <feComposite
         in="SourceGraphic"
         in2="offset"
         operator="over"
         result="composite2"
         id="feComposite4604" />
    </filter>
  </defs>
  <sodipodi:namedview
     pagecolor="#ffffff"
     bordercolor="#666666"
     borderopacity="1"
     objecttolerance="10"
     gridtolerance="10"
     guidetolerance="10"
     inkscape:pageopacity="0"
     inkscape:pageshadow="2"
     inkscape:window-width="1920"
     inkscape:window-height="1057"
     id="namedview849"
     showgrid="true"
     showguides="true"
     inkscape:guide-bbox="true"
     inkscape:zoom="5.55"
     inkscape:cx="77.927928"
     inkscape:cy="80"
     inkscape:window-x="-8"
     inkscape:window-y="-8"
     inkscape:window-maximized="1"
     inkscape:current-layer="g4655">
    <inkscape:grid
       type="xygrid"
       id="grid855" />
    <sodipodi:guide
       position="80,127.56757"
       orientation="1,0"
       id="guide857"
       inkscape:locked="false" />
    <sodipodi:guide
       position="-27.747748,80"
       orientation="0,1"
       id="guide859"
       inkscape:locked="false" />
  </sodipodi:namedview>
  <g
     id="g4655"
     style="display:inline"
     sodipodi:insensitive="true">
    <circle
       style="display:inline;fill:#003600;fill-opacity:1;stroke:#e5ea00;stroke-width:0.75590551;stroke-miterlimit:4;stroke-dasharray:none;stroke-opacity:1"
       id="circle835"
       r="80"
       cy="80"
       cx="80"
       sodipodi:insensitive="true" />
    <g
       aria-label="20"
       style="font-size:46px;display:inline;fill:#ff0000"
       id="text837"
       transform="translate(-2.399652)">
      <path
         d="M 41.698277,125.09009 H 19.057652 v -4.69434 q 2.358399,-2.02148 4.716797,-4.04297 2.38086,-2.02148 4.424805,-4.0205 4.3125,-4.17774 5.907227,-6.62598 1.594726,-2.4707 1.594726,-5.32324 0,-2.605472 -1.729492,-4.065433 -1.707031,-1.482422 -4.78418,-1.482422 -2.043945,0 -4.424804,0.71875 -2.38086,0.71875 -4.649414,2.201172 h -0.22461 V 93.03833 q 1.594727,-0.786133 4.245117,-1.4375 2.672852,-0.651367 5.166016,-0.651367 5.143555,0 8.063477,2.493164 2.919921,2.470703 2.919921,6.715823 0,1.90918 -0.49414,3.57129 -0.47168,1.63964 -1.415039,3.12207 -0.875977,1.39257 -2.066407,2.74023 -1.167968,1.34766 -2.852539,2.98731 -2.40332,2.35839 -4.963867,4.58203 -2.560547,2.20117 -4.784179,4.08789 h 17.99121 z"
         style="font-size:46px;display:inline;fill:#ff0000"
         id="path852"
         inkscape:connector-curvature="0" />
      <path
         d="m 70.942418,108.35669 q 0,9.00684 -2.830078,13.22949 -2.807617,4.2002 -8.737305,4.2002 -6.019531,0 -8.804687,-4.26758 -2.762696,-4.26758 -2.762696,-13.11719 0,-8.916991 2.807618,-13.162108 2.807617,-4.267578 8.759765,-4.267578 6.019532,0 8.782227,4.334961 2.785156,4.3125 2.785156,13.049805 z m -5.907226,10.19727 q 0.786132,-1.81934 1.055664,-4.26758 0.291992,-2.47071 0.291992,-5.92969 0,-3.41406 -0.291992,-5.92969 -0.269532,-2.515623 -1.078125,-4.267576 -0.786133,-1.729492 -2.15625,-2.605469 -1.347657,-0.875976 -3.481446,-0.875976 -2.111328,0 -3.503906,0.875976 -1.370117,0.875977 -2.178711,2.650391 -0.763672,1.662109 -1.055664,4.334964 -0.269531,2.67285 -0.269531,5.8623 0,3.50391 0.24707,5.86231 0.24707,2.35839 1.055664,4.22265 0.741211,1.75196 2.088867,2.67285 1.370118,0.9209 3.616211,0.9209 2.111328,0 3.503907,-0.87597 1.392578,-0.87598 2.15625,-2.65039 z"
         style="font-size:46px;display:inline;fill:#ff0000"
         id="path854"
         inkscape:connector-curvature="0" />
    </g>
    <g
       aria-label="20"
       style="font-size:46px;display:inline;fill:#ff0000"
       id="text845"
       transform="translate(2.799854)">
      <path
         d="M 113.19377,125.09009 H 90.553146 v -4.69434 q 2.358399,-2.02148 4.716797,-4.04297 2.38086,-2.02148 4.424805,-4.0205 4.312502,-4.17774 5.907222,-6.62598 1.59473,-2.4707 1.59473,-5.32324 0,-2.605472 -1.72949,-4.065433 -1.70703,-1.482422 -4.78418,-1.482422 -2.043946,0 -4.424806,0.71875 -2.380859,0.71875 -4.649414,2.201172 H 91.384201 V 93.03833 q 1.594727,-0.786133 4.245117,-1.4375 2.672852,-0.651367 5.166012,-0.651367 5.14356,0 8.06348,2.493164 2.91992,2.470703 2.91992,6.715823 0,1.90918 -0.49414,3.57129 -0.47168,1.63964 -1.41504,3.12207 -0.87597,1.39257 -2.0664,2.74023 -1.16797,1.34766 -2.85254,2.98731 -2.40332,2.35839 -4.96387,4.58203 -2.560547,2.20117 -4.78418,4.08789 h 17.99121 z"
         style="font-size:46px;display:inline;fill:#ff0000"
         id="path857"
         inkscape:connector-curvature="0" />
      <path
         d="m 142.43791,108.35669 q 0,9.00684 -2.83008,13.22949 -2.80761,4.2002 -8.7373,4.2002 -6.01953,0 -8.80469,-4.26758 -2.76269,-4.26758 -2.76269,-13.11719 0,-8.916991 2.80761,-13.162108 2.80762,-4.267578 8.75977,-4.267578 6.01953,0 8.78223,4.334961 2.78515,4.3125 2.78515,13.049805 z m -5.90722,10.19727 q 0.78613,-1.81934 1.05566,-4.26758 0.29199,-2.47071 0.29199,-5.92969 0,-3.41406 -0.29199,-5.92969 -0.26953,-2.515623 -1.07813,-4.267576 -0.78613,-1.729492 -2.15625,-2.605469 -1.34765,-0.875976 -3.48144,-0.875976 -2.11133,0 -3.50391,0.875976 -1.37011,0.875977 -2.17871,2.650391 -0.76367,1.662109 -1.05566,4.334964 -0.26953,2.67285 -0.26953,5.8623 0,3.50391 0.24707,5.86231 0.24707,2.35839 1.05566,4.22265 0.74121,1.75196 2.08887,2.67285 1.37012,0.9209 3.61621,0.9209 2.11133,0 3.50391,-0.87597 1.39257,-0.87598 2.15625,-2.65039 z"
         style="font-size:46px;display:inline;fill:#ff0000"
         id="path859"
         inkscape:connector-curvature="0" />
    </g>
    <g
       id="g1560"
       transform="translate(10.219375)"
       sodipodi:insensitive="true">
      <path
         inkscape:connector-curvature="0"
         id="path1554"
         d="M 70.42253,12.572208 86.41495,13.691294 62.62277,70.626943 90.77831,52.814775 70.88539,123.4603 l 8.26077,-5.89182 -16.03887,26.2498 -1.69234,-30.12699 4.33291,8.4142 L 75,70 48.799346,86.580387 Z"
         style="fill:none;stroke:#0068ff;stroke-width:1px;stroke-linecap:butt;stroke-linejoin:miter;stroke-opacity:1" />
      <path
         inkscape:connector-curvature="0"
         id="path1556"
         d="m 63.520545,141.28048 c -0.0039,-0.39574 -0.294274,-5.78763 -0.645348,-11.98198 -0.351074,-6.19436 -0.614588,-11.54625 -0.585586,-11.89309 0.04758,-0.56909 0.227413,-0.28912 1.842616,2.86874 1.394136,2.72564 1.820277,3.42282 1.927342,3.15315 0.187722,-0.47282 9.719404,-54.357037 9.630964,-54.445477 -0.0388,-0.03879 -5.847302,3.58513 -12.907793,8.05317 -7.06049,4.468038 -12.858132,8.102187 -12.883649,8.075888 -0.04997,-0.0515 20.846408,-71.705894 20.950587,-71.840295 0.06473,-0.08352 14.510994,0.888566 14.613228,0.983316 0.03163,0.02931 -5.340713,12.971213 -11.938529,28.759784 -6.597816,15.78857 -11.975043,28.762649 -11.949392,28.831285 0.02565,0.06864 6.319496,-3.845546 13.986323,-8.698182 7.666827,-4.852634 13.982643,-8.780014 14.035148,-8.72751 0.0525,0.0525 -4.346413,15.869802 -9.775373,35.149552 -5.428959,19.279749 -9.838759,35.086169 -9.799553,35.125369 0.0392,0.0392 1.599993,-1.02163 3.468421,-2.3574 1.868429,-1.33578 3.417359,-2.40396 3.442067,-2.37373 0.02471,0.0302 -2.784149,4.67657 -6.241908,10.32522 -3.457759,5.64865 -6.483867,10.59459 -6.724684,10.99099 L 63.527575,142 l -0.007,-0.71952 z"
         style="display:inline;opacity:1;vector-effect:none;fill:#00c9ff;fill-opacity:1;stroke:#ffffff;stroke-width:0.823937;stroke-linecap:butt;stroke-linejoin:miter;stroke-miterlimit:4;stroke-dasharray:none;stroke-dashoffset:0;stroke-opacity:1" />
    </g>
    <g
       aria-label="enersim"
       style="font-size:40px;display:inline;fill:#ffff87;fill-opacity:1;filter:url(#filter4606)"
       id="text843">
      <path
         d="m 35.692813,66.321804 q 0,0.56 -0.32,0.84 -0.32,0.28 -0.8,0.28 -0.48,0 -0.8,-0.28 -0.32,-0.28 -0.32,-0.84 0,-2.88 -1.92,-5.12 -2.16,-2.52 -5.6,-2.52 -2.96,0 -5.04,2.28 -2.04,2.24 -2.04,5.44 0,2.92 2.12,5 2.12,2.08 5.08,2.08 h 8.4 q 0.56,0 0.84,0.32 0.32,0.32 0.32,0.84 0,0.44 -0.32,0.8 -0.28,0.32 -0.84,0.32 h -8.4 q -3.84,0 -6.68,-2.72 -2.8,-2.76 -2.8,-6.64 0,-4 2.68,-6.96 2.72,-3 6.68,-3 4.48,0 7.28,3.28 2.48,2.88 2.48,6.6 z m -1.32,5.48 h -8.12 q -2.4,0 -4.12,-1.68 -1.72,-1.68 -1.72,-4.12 0,-2.24 1.68,-3.64 1.72,-1.44 3.96,-1.44 3.36,0 4.76,2.84 0.44,0.92 0.72,2.84 0,1.16 -1.12,1.16 h -7.24 q 1,1.8 3.08,1.8 h 8.12 q 0.56,0 0.84,0.32 0.28,0.32 0.28,0.8 0,0.48 -0.28,0.8 -0.28,0.32 -0.84,0.32 z m -5.32,-6.32 q -0.28,-0.96 -0.88,-1.52 -0.8,-0.76 -2.12,-0.76 -1.36,0 -2.24,0.6 -0.88,0.6 -1.08,1.68 z"
         style="font-style:normal;font-variant:normal;font-weight:normal;font-stretch:normal;font-family:Skinny;-inkscape-font-specification:Skinny;fill:#ffff87;fill-opacity:1"
         id="path837"
         inkscape:connector-curvature="0" />
      <path
         d="m 55.474063,74.721804 q 0,0.52 -0.32,0.8 -0.32,0.28 -0.8,0.28 -1.16,0 -1.16,-1.08 v -9.6 q 0,-2.92 -2,-4.56 -1.8,-1.48 -4.48,-1.48 -2.68,0 -4.6,1.52 -2.08,1.68 -2.08,4.52 v 9.6 q 0,0.52 -0.36,0.8 -0.36,0.28 -0.8,0.28 -1.12,0 -1.12,-1.08 v -9.6 q 0,-3.92 2.8,-6.24 2.56,-2.12 6.16,-2.12 3.56,0 6.04,2.08 2.72,2.28 2.72,6.28 z m -4.12,0 q 0,0.52 -0.32,0.8 -0.32,0.28 -0.8,0.28 -1.16,0 -1.16,-1.08 v -9.6 q 0.12,-1.04 -0.64,-1.6 -0.76,-0.6 -1.88,-0.6 -1.12,0 -1.92,0.6 -0.76,0.6 -0.64,1.72 v 9.48 q 0,0.52 -0.32,0.8 -0.32,0.28 -0.8,0.28 -1.16,0 -1.16,-1.08 v -9.48 q 0,-2.2 1.44,-3.4 1.44,-1.24 3.4,-1.24 1.96,0 3.28,1.12 1.52,1.28 1.52,3.4 z"
         style="font-style:normal;font-variant:normal;font-weight:normal;font-stretch:normal;font-family:Skinny;-inkscape-font-specification:Skinny;fill:#ffff87;fill-opacity:1"
         id="path839"
         inkscape:connector-curvature="0" />
      <path
         d="m 76.786563,66.321804 q 0,0.56 -0.32,0.84 -0.32,0.28 -0.8,0.28 -0.48,0 -0.8,-0.28 -0.32,-0.28 -0.32,-0.84 0,-2.88 -1.92,-5.12 -2.16,-2.52 -5.6,-2.52 -2.96,0 -5.04,2.28 -2.04,2.24 -2.04,5.44 0,2.92 2.12,5 2.12,2.08 5.08,2.08 h 8.4 q 0.56,0 0.84,0.32 0.32,0.32 0.32,0.84 0,0.44 -0.32,0.8 -0.28,0.32 -0.84,0.32 h -8.4 q -3.84,0 -6.68,-2.72 -2.8,-2.76 -2.8,-6.64 0,-4 2.68,-6.96 2.72,-3 6.68,-3 4.48,0 7.28,3.28 2.48,2.88 2.48,6.6 z m -1.32,5.48 h -8.12 q -2.4,0 -4.12,-1.68 -1.72,-1.68 -1.72,-4.12 0,-2.24 1.68,-3.64 1.72,-1.44 3.96,-1.44 3.36,0 4.76,2.84 0.44,0.92 0.72,2.84 0,1.16 -1.12,1.16 h -7.24 q 1,1.8 3.08,1.8 h 8.12 q 0.56,0 0.84,0.32 0.28,0.32 0.28,0.8 0,0.48 -0.28,0.8 -0.28,0.32 -0.84,0.32 z m -5.32,-6.32 q -0.28,-0.96 -0.88,-1.52 -0.8,-0.76 -2.12,-0.76 -1.36,0 -2.24,0.6 -0.88,0.6 -1.08,1.68 z"
         style="font-style:normal;font-variant:normal;font-weight:normal;font-stretch:normal;font-family:Skinny;-inkscape-font-specification:Skinny;fill:#ffff87;fill-opacity:1"
         id="path841"
         inkscape:connector-curvature="0" />
      <path
         d="m 86.447813,59.241804 q -0.96,-0.24 -3.16,1.76 -2.4,2.16 -2.2,3.92 l 0.04,9.8 q 0,0.56 -0.32,0.88 -0.28,0.28 -0.8,0.28 -0.48,0 -0.84,-0.28 -0.32,-0.32 -0.32,-0.88 l -0.04,-9.8 q 0,-3.2 2.8,-5.72 2.48,-2.24 4.84,-2.24 0.56,0.12 0.84,0.52 0.28,0.4 0.28,0.88 0,1.12 -1.12,0.88 z m 0.28,1.8 q 0.6,0 0.92,0.36 0.36,0.32 0.36,0.8 0,1.2 -1.36,1.2 -0.48,0 -1.12,0.8 -0.64,0.8 -0.4,1.16 v 9.36 q 0,0.56 -0.32,0.88 -0.28,0.28 -0.8,0.28 -0.48,0 -0.84,-0.28 -0.32,-0.32 -0.32,-0.88 v -9.36 q 0.2,-1.72 1.68,-3.12 1.28,-1.2 2.2,-1.2 z"
         style="font-style:normal;font-variant:normal;font-weight:normal;font-stretch:normal;font-family:Skinny;-inkscape-font-specification:Skinny;fill:#ffff87;fill-opacity:1"
         id="path843"
         inkscape:connector-curvature="0" />
      <path
         d="m 102.67844,58.841804 q -2.32,0 -3.880002,1.24 -1.52,1.2 -2.64,4.08 -1.48,3.88 -1.76,4.44 -1.6,3.24 -4.96,3.24 -0.52,0 -0.84,-0.28 -0.28,-0.32 -0.28,-0.84 0,-0.48 0.28,-0.8 0.32,-0.36 0.84,-0.36 2,0 2.92,-1.92 0.32,-0.68 1.68,-4.24 1.2,-3.28 3.4,-5.04 2.2,-1.8 5.240002,-1.8 0.52,0 0.8,0.36 0.32,0.32 0.32,0.8 0,0.48 -0.28,0.8 -0.28,0.32 -0.84,0.32 z m 0.08,4 q -1.96,0 -2.880002,1.92 -0.36,0.76 -1.68,4.24 -1.16,3.28 -3.4,5.08 -2.24,1.76 -5.24,1.76 -0.56,0 -0.84,-0.32 -0.28,-0.32 -0.28,-0.8 0,-0.52 0.24,-0.84 0.28,-0.32 0.88,-0.32 2.32,0 3.84,-1.24 1.52,-1.24 2.64,-4.08 1.48,-3.92 1.76,-4.44 1.64,-3.24 4.960002,-3.24 0.56,0 0.84,0.32 0.32,0.32 0.32,0.84 0,0.44 -0.32,0.8 -0.28,0.32 -0.84,0.32 z"
         style="font-style:normal;font-variant:normal;font-weight:normal;font-stretch:normal;font-family:Skinny;-inkscape-font-specification:Skinny;fill:#ffff87;fill-opacity:1"
         id="path845"
         inkscape:connector-curvature="0" />
      <path
         d="m 112.00281,54.681804 q 0.08,0.56 -0.2,0.84 -0.28,0.28 -0.8,0.28 -0.48,0 -0.84,-0.24 -0.36,-0.28 -0.44,-0.88 -0.2,-1.4 -0.84,-1.4 -0.64,0 -0.84,1.4 0,0.56 -0.32,0.84 -0.32,0.28 -0.8,0.28 -0.52,0 -0.84,-0.24 -0.32,-0.28 -0.32,-0.88 0,-1.68 0.92,-2.6 0.96,-0.96 2.24,-0.96 1.24,0 2.16,0.96 0.92,0.92 0.92,2.6 z m -3.96,20 q 0,0.56 -0.32,0.88 -0.28,0.28 -0.8,0.28 -0.48,0 -0.84,-0.28 -0.32,-0.32 -0.32,-0.88 v -16.68 q 0,-0.52 0.32,-0.8 0.36,-0.32 0.84,-0.32 0.48,0 0.8,0.28 0.32,0.28 0.32,0.84 z m 4.04,0.12 q 0,0.56 -0.32,0.84 -0.32,0.28 -0.8,0.28 -0.52,0 -0.84,-0.24 -0.32,-0.28 -0.32,-0.88 v -16.72 q 0,-0.52 0.32,-0.8 0.36,-0.32 0.84,-0.32 0.44,0 0.76,0.32 0.36,0.28 0.36,0.8 z"
         style="font-style:normal;font-variant:normal;font-weight:normal;font-stretch:normal;font-family:Skinny;-inkscape-font-specification:Skinny;fill:#ffff87;fill-opacity:1"
         id="path847"
         inkscape:connector-curvature="0" />
      <path
         d="m 143.42719,74.481804 q 0,0.72 -0.36,1.16 -0.32,0.4 -0.8,0.4 -0.48,0 -0.84,-0.36 -0.32,-0.4 -0.32,-1.12 v -9.64 q 0,-2.4 -1.88,-4.04 -1.88,-1.64 -4.4,-1.64 -2.52,0 -4.36,1.52 -0.6,0.48 -1.32,1.52 -0.36,-0.64 -0.64,-0.96 -1.84,-2.08 -4.84,-2.08 -2.92,0 -4.8,1.96 -1.88,1.96 -1.88,4.56 v 8.48 q 0,1.8 -1.2,1.8 -0.36,0 -0.64,-0.24 -0.6,-0.48 -0.6,-1.56 v -8.96 q 0,-3.48 2.72,-6.04 2.72,-2.56 6.4,-2.56 2.04,0 4,1.08 0.64,0.36 1.56,1.12 0.96,-0.72 1.6,-1.04 2.04,-1.08 3.92,-1.08 3.56,0 6.12,2.48 2.56,2.48 2.56,5.84 z m -3.92,0.2 q 0,0.56 -0.32,0.88 -0.28,0.28 -0.8,0.28 -0.44,0 -0.8,-0.28 -0.32,-0.32 -0.32,-0.88 v -8.84 q 0,-1.36 -0.76,-2.12 -0.72,-0.76 -1.76,-0.76 -1,0 -1.76,0.76 -0.72,0.76 -0.72,2.12 v 8.96 q 0,0.56 -0.32,0.84 -0.32,0.28 -0.8,0.28 -0.52,0 -0.84,-0.24 -0.32,-0.28 -0.32,-0.88 v -8.96 q 0,-2.4 1.48,-3.84 1.32,-1.28 3.28,-1.28 1.92,0 3.32,1.36 1.44,1.32 1.44,3.76 z m -11.32,0 q 0,0.56 -0.32,0.88 -0.28,0.28 -0.8,0.28 -0.48,0 -0.84,-0.28 -0.32,-0.32 -0.32,-0.88 v -8.84 q 0,-1.36 -0.76,-2.12 -0.72,-0.76 -1.72,-0.76 -1,0 -1.76,0.76 -0.72,0.76 -0.72,2.12 v 8.96 q 0,0.56 -0.32,0.84 -0.32,0.28 -0.8,0.28 -0.52,0 -0.84,-0.24 -0.32,-0.28 -0.32,-0.88 v -8.96 q 0,-2.4 1.48,-3.84 1.32,-1.28 3.28,-1.28 1.92,0 3.32,1.36 1.44,1.32 1.44,3.76 z"
         style="font-style:normal;font-variant:normal;font-weight:normal;font-stretch:normal;font-family:Skinny;-inkscape-font-specification:Skinny;fill:#ffff87;fill-opacity:1"
         id="path849"
         inkscape:connector-curvature="0" />
    </g>
  </g>
</svg>
